<?xml version="1.0" encoding="utf-8"?>
<svg version="1.1" xmlns:xlink="http://www.w3.org/1999/xlink" width="16px" height="16px" xmlns="http://www.w3.org/2000/svg">
  <g transform="matrix(1 0 0 1 -964 -74 )">
    <path d="M 972 74  C 976.48 74  980 77.52  980 82  C 980 86.48  976.48 90  972 90  C 967.52 90  964 86.48  964 82  C 964 77.52  967.52 74  972 74  Z " fill-rule="nonzero" fill="#ffffff" stroke="none" fill-opacity="0" />
    <path d="M 972 74.5  C 976.2 74.5  979.5 77.8  979.5 82  C 979.5 86.2  976.2 89.5  972 89.5  C 967.8 89.5  964.5 86.2  964.5 82  C 964.5 77.8  967.8 74.5  972 74.5  Z " stroke-width="1" stroke="#000000" fill="none" />
  </g>
</svg>